<svg width="75" height="70" viewBox="0 0 75 70" fill="none" xmlns="http://www.w3.org/2000/svg">
<path d="M39.9615 53.2147H41.8369C41.8369 53.9935 41.8422 55.3519 41.673 55.8413H41.9836C42.422 54.7469 43.3226 52.8733 45.8795 52.8733C48.6315 52.8733 50.7502 55.2808 50.7502 59.2469C50.7502 63.2125 48.6315 65.5961 45.8795 65.5961C43.4933 65.5961 42.4703 64.0639 41.9836 62.6281H41.673C42.0631 63.8983 42.0319 64.867 42.0319 67.371V69.9977H39.9615V53.2147ZM48.6315 59.2708C48.6315 55.9139 47.2443 54.6987 45.3188 54.6987C43.3465 54.6987 41.9095 56.2306 41.9095 59.2708C41.9095 62.311 43.3465 63.7707 45.3188 63.7707C47.2443 63.7726 48.6315 62.6281 48.6315 59.2708ZM31.5588 28.9112H33.4342C33.4342 29.6901 33.4395 31.0484 33.2703 31.5379H33.5809C34.0192 30.4435 34.9198 28.5698 37.4768 28.5698C40.2288 28.5698 42.3475 30.9774 42.3475 34.9434C42.3475 38.909 40.2288 41.2927 37.4768 41.2927C35.0905 41.2927 34.0675 39.7604 33.5809 38.3246H33.2703C33.6604 39.5949 33.6292 40.5636 33.6292 43.0676V45.6943H31.5588V28.9112ZM40.2288 34.9673C40.2288 31.6104 38.8416 30.3952 36.9161 30.3952C34.9438 30.3952 33.5068 31.9271 33.5068 34.9673C33.5068 38.0075 34.9438 39.4673 36.9161 39.4673C38.8416 39.4692 40.2288 38.3246 40.2288 34.9673ZM0 0H7.3052C10.8856 0 12.5898 1.79921 12.5898 4.03817C12.5898 6.32497 11.0563 7.49192 9.05813 7.61419V8.56203C11.1285 8.65886 13.1491 9.80302 13.1491 12.4536C13.1491 15.6161 10.5921 17.0276 7.64507 17.0276H0V0ZM7.11018 7.17635C9.0338 7.17635 10.2762 6.10624 10.2762 4.49994C10.2762 2.89363 9.03418 2.06807 7.11018 2.06807H2.19088V7.17635H7.11018ZM7.32954 14.9611C9.49646 14.9611 10.7871 13.793 10.7871 12.042C10.7871 10.291 9.49646 9.2205 7.32954 9.2205H2.19126V14.9614L7.32954 14.9611ZM15.706 13.9152C15.706 10.6062 19.383 9.46354 23.3043 9.14797V8.80658C23.3043 7.34686 22.5007 6.47117 20.6508 6.47117C18.4356 6.47117 17.7281 7.7847 17.4126 8.68431L15.4403 7.9552C15.8786 6.3489 17.535 4.64614 20.6767 4.64614C23.8913 4.64614 25.3766 6.30067 25.3766 8.78076V14.4974C25.3766 15.0579 25.5234 15.2026 26.0826 15.2026H27.3485V17.0276H26.424C24.671 17.0276 24.1829 16.7276 24.1829 14.8061H23.6203C23.2059 16.3623 21.6738 17.3671 19.5552 17.3671C17.1431 17.369 15.706 16.0555 15.706 13.9152ZM23.304 12.0416V10.7042C20.3573 11.0193 17.8486 11.7746 17.8486 13.7444C17.8486 14.8874 18.5785 15.618 20.0878 15.618C21.6719 15.618 23.304 14.5475 23.304 12.0416ZM29.4158 0H31.6071V2.62667H29.4158V0ZM29.4881 4.9879H31.5588V17.0295H29.4885V4.98828L29.4881 4.9879ZM36.7469 4.98752C36.7469 5.69232 36.7108 7.41939 36.4363 7.7847H36.7708C37.113 6.61813 38.3291 4.64614 40.6911 4.64614C43.6864 4.64614 44.9044 6.49548 44.9044 9.17037V17.0276H42.8341V9.65796C42.8341 7.39508 41.7867 6.47155 40.1805 6.47155C36.8678 6.47155 36.7952 10.144 36.7952 11.9208V17.0299H34.7248V4.98752H36.7469ZM0 32.2689C0 27.3311 3.33669 23.5842 8.25599 23.5842C12.664 23.5842 14.978 26.3332 15.6593 28.596L13.3939 29.3749C12.9556 27.9892 11.6892 25.6542 8.25599 25.6542C4.74975 25.6542 2.36195 28.1358 2.36195 32.2465C2.36195 36.3568 4.7239 39.228 8.25599 39.228C11.617 39.228 12.8351 37.3305 13.468 35.2863L15.6836 36.1138C14.9278 38.8384 12.4693 41.2946 8.25599 41.2946C2.92269 41.2927 0 37.2063 0 32.2689ZM17.7764 37.8389C17.7764 34.5299 21.4533 33.3872 25.3751 33.0717V32.7303C25.3751 31.2705 24.571 30.3949 22.7212 30.3949C20.506 30.3949 19.7985 31.7084 19.483 32.608L17.5107 31.8789C17.949 30.2726 19.6054 28.5698 22.747 28.5698C25.9617 28.5698 27.447 30.2244 27.447 32.7045V38.4211C27.447 38.9816 27.5937 39.1263 28.1529 39.1263H29.4193V40.9513H28.4943C26.7414 40.9513 26.2533 40.6513 26.2533 38.7298H25.6925C25.2782 40.286 23.7446 41.2908 21.6256 41.2908C19.2138 41.2927 17.7764 39.9792 17.7764 37.8389ZM25.3751 35.9653V34.6278C22.4281 34.943 19.9194 35.6983 19.9194 37.6681C19.9194 38.8111 20.6493 39.5417 22.1589 39.5417C23.7427 39.5417 25.3751 38.4712 25.3751 35.9653ZM59.2248 37.8389C59.2248 34.5299 62.9017 33.3872 66.8235 33.0717V32.7303C66.8235 31.2705 66.0194 30.3949 64.1699 30.3949C61.9543 30.3949 61.2469 31.7084 60.9313 32.608L58.959 31.8789C59.3974 30.2726 61.0537 28.5698 64.1958 28.5698C67.41 28.5698 68.8957 30.2244 68.8957 32.7045V38.4211C68.8957 38.9816 69.0421 39.1263 69.6013 39.1263H70.8676V40.9513H69.9427C68.1898 40.9513 67.7016 40.6513 67.7016 38.7298H67.1409C66.7269 40.286 65.1929 41.2908 63.0743 41.2908C60.6603 41.2927 59.2248 39.9792 59.2248 37.8389ZM66.8216 35.9653V34.6278C63.8749 34.943 61.3662 35.6983 61.3662 37.6681C61.3662 38.8111 62.0958 39.5417 63.6058 39.5417C65.191 39.5417 66.8216 38.4712 66.8216 35.9653ZM44.7474 23.9237H46.9387V26.5504H44.7474V23.9237ZM44.8197 28.9116H46.8904V40.9532H44.8197V28.9116ZM51.7093 38.0334V30.6626H48.9091V28.9112H51.7093V25.1404H53.7797V28.9112H57.0666V30.6622H53.7797V37.9111C53.7797 38.7625 54.1454 39.1278 54.9977 39.1278H57.5064V40.9528H54.7305C52.7323 40.9528 51.7093 40.0274 51.7093 38.0334ZM72.9296 23.9237H75V40.9513H72.9296V23.9237ZM0 56.5723C0 51.6346 3.33707 47.8877 8.25599 47.8877C12.6644 47.8877 14.978 50.6366 15.6597 52.8995L13.3943 53.6783C12.9559 52.2927 11.6896 49.9576 8.25599 49.9576C4.74823 49.9576 2.36194 52.4392 2.36194 56.5499C2.36194 60.6603 4.72428 63.5315 8.25599 63.5315C11.617 63.5315 12.8351 61.6339 13.4665 59.5898L15.6821 60.4172C14.9263 63.1419 12.4674 65.598 8.25409 65.598C2.92117 65.5961 0 61.5097 0 56.5723ZM18.0992 53.2147H20.1456C20.1456 54.2609 20.1387 56.0323 19.811 56.6202H20.0973C20.6341 54.6744 21.6312 53.0442 24.0673 53.0442C24.6524 53.0442 25.0162 53.1163 25.3097 53.1907V55.307C24.8843 55.2259 24.4522 55.1849 24.0191 55.1848C21.2914 55.1848 20.1714 56.9358 20.1714 59.7329V65.2547H18.1011V53.2147H18.0992ZM38.2276 53.215L33.5516 66.9097C32.7476 69.2933 31.8713 70 29.7527 70H27.4648V68.1024H29.7542C30.5582 68.1024 31.0931 67.9315 31.4106 67.0319L32.0922 65.1104L26.8817 53.215H29.2193L31.8246 59.466C32.2872 60.5847 32.3853 61.8014 32.4096 62.9197H33.3844C33.4087 61.8253 33.5068 60.9261 33.871 59.8058L36.0379 53.2135H38.2276V53.215ZM54.3511 62.3368V54.966H51.5508V53.2147H54.3511V49.4438H56.4218V53.2147H59.7083V54.9657H56.4218V62.2145C56.4218 63.0659 56.7875 63.4312 57.6399 63.4312H60.1486V65.2563H57.3722C55.3745 65.2563 54.3511 64.3308 54.3511 62.3368ZM61.3442 59.2469C61.3442 55.6222 63.6818 52.8733 66.9447 52.8733C70.2073 52.8733 72.5453 55.6226 72.5453 59.2469C72.5453 62.8711 70.1107 65.5961 66.9447 65.5961C63.7787 65.5961 61.3442 62.8711 61.3442 59.2469ZM70.4042 59.2708C70.4042 56.2306 68.9908 54.6987 66.9462 54.6987C64.9017 54.6987 63.4887 56.2306 63.4887 59.2708C63.4887 62.311 64.9017 63.7707 66.9462 63.7707C68.9908 63.7707 70.4042 62.3125 70.4042 59.2708Z" fill="#A0A0A0"/>
</svg>
