<svg width="238" height="45" viewBox="0 0 238 45" fill="none" xmlns="http://www.w3.org/2000/svg">
<g clip-path="url(#clip0_603_343)">
<path d="M66.4613 31.828C62.0795 31.828 59.3641 27.8953 59.3641 22.454C59.3641 17.0668 61.6493 13.0532 66.4343 13.0532C69.5795 13.0532 71.6495 15.0734 72.0263 17.7401H79.3385C78.9617 14.4269 77.4833 11.5178 74.9027 9.5784C72.8057 7.96218 69.9023 6.96558 66.4613 6.96558C57.6436 6.96558 51.9175 13.6458 51.9175 22.454C51.9175 31.3162 57.8318 37.8079 66.5153 37.8079C70.6817 37.8079 73.7195 36.6496 75.9779 34.4408C77.9939 32.5014 79.3385 29.8077 79.5263 26.8717H72.2141C71.8919 29.7539 69.7409 31.828 66.4613 31.828Z" fill="#AAAAAA"/>
<path d="M93.0222 15.3966C86.2475 15.3966 81.7043 20.2452 81.7043 26.6291C81.7043 33.0131 86.2475 37.8617 93.0222 37.8617C99.8502 37.8617 104.313 33.0131 104.313 26.6291C104.313 20.2452 99.8502 15.3966 93.0222 15.3966ZM92.9952 33.04C90.0648 33.04 88.5323 30.4811 88.5323 26.6291C88.5323 22.7772 90.0648 20.1644 92.9952 20.1644C95.9256 20.1644 97.5113 22.7772 97.5113 26.6291C97.4849 30.4811 95.9256 33.04 92.9952 33.04Z" fill="#AAAAAA"/>
<path d="M113.878 13.1422C115.317 11.701 115.317 9.36452 113.878 7.92338C112.44 6.48224 110.108 6.48224 108.67 7.92338C107.232 9.36452 107.232 11.701 108.67 13.1422C110.108 14.5833 112.44 14.5833 113.878 13.1422Z" fill="#AAAAAA"/>
<path d="M105.415 20.7302H108.238V37.1884H114.959V15.9624H105.415V20.7302Z" fill="#AAAAAA"/>
<path d="M131.492 15.3428C128.562 15.3428 126.518 16.5818 124.96 18.8714H124.825V15.9623H118.346V37.1614H125.094V25.444C125.094 22.8311 126.572 20.9725 128.804 20.9725C131.008 20.9725 132.11 22.5079 132.11 24.7436V37.1614H138.858V23.3699C138.858 18.656 136.116 15.3428 131.492 15.3428Z" fill="#AAAAAA"/>
<path d="M154.665 7.55811H142.057V37.1614H154.208C157.918 37.1614 160.902 36.2186 163.214 34.4677C166.521 31.9357 168.349 27.7605 168.349 22.5348C168.349 13.4841 162.838 7.55811 154.665 7.55811ZM153.671 31.0198H149.369V13.6996H153.751C158.348 13.6996 160.956 17.1744 160.956 22.5618C160.929 27.976 158.456 31.0198 153.671 31.0198Z" fill="#AAAAAA"/>
<path d="M188.323 18.1442C186.495 16.5011 184.102 15.5044 181.091 15.5044C174.639 15.5044 170.23 20.3529 170.23 26.6831C170.23 33.0939 174.532 37.9425 181.522 37.9425C184.21 37.9425 186.36 37.2422 188.135 36.0031C189.989 34.7102 191.226 32.9054 191.683 30.9929H185.123C184.532 32.3128 183.376 33.0939 181.602 33.0939C178.833 33.0939 177.274 31.3161 176.843 28.4609H192.059C192.086 24.1241 190.85 20.4607 188.323 18.1442ZM176.87 24.4204C177.328 21.8883 178.645 20.2722 181.199 20.2722C183.376 20.2722 184.963 21.8883 185.204 24.4204H176.87Z" fill="#AAAAAA"/>
<path d="M205.34 23.9087C202.651 23.4238 200.259 23.2083 200.259 21.7268C200.259 20.4069 201.549 19.7873 203.189 19.7873C205.044 19.7873 206.335 20.38 206.576 22.2655H212.786C212.464 18.0904 209.238 15.4775 203.243 15.4775C198.242 15.4775 194.102 17.7941 194.102 22.2655C194.102 27.2488 198.028 28.2185 201.71 28.838C204.533 29.3229 207.087 29.5384 207.087 31.4509C207.087 32.8246 205.797 33.5519 203.78 33.5519C201.549 33.5519 200.151 32.5283 199.882 30.4004H193.511C193.726 35.0873 197.597 37.9426 203.807 37.9426C209.345 37.9426 213.431 35.5453 213.431 30.9122C213.458 25.4979 209.077 24.5282 205.34 23.9087Z" fill="#AAAAAA"/>
<path d="M229.293 23.9355L236.74 15.9623H228.97L222.68 23.1274V7.55811H216.04V37.1883H222.68V30.6696L224.723 28.5147L229.804 37.1883H237.6L229.293 23.9355Z" fill="#AAAAAA"/>
<path d="M22.2926 24.4205C23.4211 24.4205 24.3358 23.504 24.3358 22.3733C24.3358 21.2427 23.4211 20.3262 22.2926 20.3262C21.1643 20.3262 20.2495 21.2427 20.2495 22.3733C20.2495 23.504 21.1643 24.4205 22.2926 24.4205Z" fill="#AAAAAA"/>
<path d="M38.5839 24.4205C39.7123 24.4205 40.627 23.504 40.627 22.3733C40.627 21.2427 39.7123 20.3262 38.5839 20.3262C37.4555 20.3262 36.5408 21.2427 36.5408 22.3733C36.5408 23.504 37.4555 24.4205 38.5839 24.4205Z" fill="#AAAAAA"/>
<path d="M38.5839 40.7709C39.7123 40.7709 40.627 39.8543 40.627 38.7237C40.627 37.5931 39.7123 36.6765 38.5839 36.6765C37.4555 36.6765 36.5408 37.5931 36.5408 38.7237C36.5408 39.8543 37.4555 40.7709 38.5839 40.7709Z" fill="#AAAAAA"/>
<path d="M44.5787 5.64569C44.3636 2.65573 41.971 0.231446 38.987 0.0159543C37.0783 -0.118729 35.3577 0.608556 34.148 1.84764C33.2339 2.79041 31.9973 3.35608 30.68 3.35608H30.1961C28.852 3.35608 27.5885 2.79041 26.6476 1.8207C25.5454 0.689364 24.013 0.0159543 22.3194 0.0159543C20.6257 0.0159543 19.0934 0.716304 17.9912 1.8207C17.0503 2.79041 15.7868 3.35608 14.4426 3.35608H13.9856C12.6683 3.35608 11.4048 2.84429 10.4908 1.90151C10.3026 1.71296 10.1144 1.5244 9.92622 1.36278C7.64118 -0.49584 4.28075 -0.441967 2.07634 1.5244C-0.585101 3.86788 -0.692634 7.96224 1.78062 10.4404C1.80751 10.4673 1.83439 10.4942 1.86127 10.5212C2.82907 11.437 3.33985 12.73 3.33985 14.0499V14.5078C3.33985 15.8546 2.7753 17.1206 1.8075 18.0634C0.678408 19.1678 0.00632967 20.7032 0.00632967 22.4002C0.00632967 24.0972 0.705294 25.6326 1.8075 26.737C2.7753 27.6798 3.33985 28.9458 3.33985 30.2926V30.9122C3.33985 32.2321 2.7753 33.4711 1.83439 34.387C0.651528 35.5453 -0.0743196 37.1884 0.00632967 38.9931C0.140746 42.1716 2.72153 44.7306 5.86687 44.8384C7.69494 44.8922 9.3348 44.1649 10.4908 42.9528C11.4048 42.01 12.6414 41.4174 13.9587 41.4174H14.4695C15.7868 41.4174 17.0234 41.9831 17.9374 42.9528C19.1471 44.2188 20.8946 44.9461 22.8033 44.8114C25.7873 44.5959 28.2068 42.1716 28.4219 39.1547C28.6638 35.5722 25.868 32.6092 22.3463 32.6092C20.6795 32.6092 19.1471 33.2825 18.0449 34.387C17.104 35.3297 15.8405 35.8954 14.5232 35.8954H13.9587C12.6414 35.8954 11.351 35.3836 10.4101 34.4139C10.3832 34.387 10.3832 34.387 10.3564 34.36C9.38856 33.4172 8.82402 32.1512 8.82402 30.8044V30.2657C8.82402 28.9189 9.38856 27.6529 10.3564 26.7101C11.4854 25.6057 12.1576 24.0703 12.1576 22.3733C12.1576 20.6763 11.4586 19.1409 10.3564 18.0365C9.38856 17.0937 8.82402 15.8277 8.82402 14.4809V13.996C8.82402 12.6492 9.38856 11.3831 10.3295 10.4404C10.3564 10.4135 10.3564 10.4135 10.3832 10.3865C10.4101 10.3596 10.4101 10.3596 10.437 10.3327C11.3779 9.38988 12.6414 8.8242 13.9856 8.8242H14.4695C15.8137 8.8242 17.0771 9.38988 18.0181 10.3596C19.1203 11.4909 20.6526 12.1643 22.3463 12.1643C24.0399 12.1643 25.5722 11.464 26.6744 10.3596C27.6154 9.38988 28.8789 8.8242 30.223 8.8242H30.6532C31.9973 8.8242 33.2608 9.38988 34.2017 10.3596C35.3039 11.4909 36.8363 12.1643 38.53 12.1643C42.0248 12.1913 44.8206 9.22824 44.5787 5.64569Z" fill="#AAAAAA"/>
</g>
<defs>
<clipPath id="clip0_603_343">
<rect width="237.6" height="45" fill="white"/>
</clipPath>
</defs>
</svg>
