<svg width="300" height="68" viewBox="0 0 300 68" fill="none" xmlns="http://www.w3.org/2000/svg">
<path d="M118.298 39.7795C118.652 39.7795 118.958 39.9129 119.212 40.1662C119.465 40.4263 119.599 40.733 119.599 41.0864V44.5269C119.599 44.887 119.472 45.187 119.212 45.4471C118.952 45.7071 118.645 45.8338 118.298 45.8338H97.1218C96.7684 45.8338 96.4616 45.7004 96.2016 45.4471C95.9416 45.187 95.8149 44.8803 95.8149 44.5269V13.2154C95.8149 12.862 95.9482 12.5553 96.2016 12.2952C96.455 12.0352 96.7684 11.9085 97.1218 11.9085H117.912C118.265 11.9085 118.572 12.0419 118.825 12.2952C119.079 12.5553 119.212 12.862 119.212 13.2154V16.6559C119.212 17.016 119.079 17.316 118.825 17.5761C118.572 17.8361 118.258 17.9628 117.912 17.9628H102.329V25.6707H116.851C117.205 25.6707 117.512 25.804 117.765 26.0574C118.018 26.3108 118.152 26.6241 118.152 26.9775V30.4181C118.152 30.7781 118.025 31.0782 117.765 31.3382C117.505 31.5982 117.198 31.7249 116.851 31.7249H102.329V39.7728H118.298V39.7795Z" fill="white"/>
<path d="M125.153 26.8309C125.279 26.1508 125.58 25.424 126.046 24.6506C126.513 23.8771 127.166 23.1503 128.027 22.4702C128.88 21.7901 129.92 21.23 131.16 20.7966C132.401 20.3632 133.841 20.1432 135.481 20.1432C137.121 20.1432 138.602 20.3566 139.922 20.7966C141.242 21.23 142.375 21.8701 143.322 22.7103C144.276 23.5504 145.003 24.6106 145.516 25.8841C146.029 27.1643 146.289 28.6245 146.289 30.2714V44.527C146.289 44.887 146.163 45.1871 145.903 45.4471C145.649 45.7072 145.336 45.8339 144.983 45.8339H141.315C140.962 45.8339 140.655 45.7005 140.395 45.4471C140.142 45.1871 140.008 44.8804 140.008 44.527V42.9267C139.335 43.8669 138.362 44.6603 137.088 45.3271C135.814 45.9872 134.201 46.3206 132.241 46.3206C130.86 46.3206 129.62 46.1339 128.527 45.7605C127.433 45.3871 126.513 44.8604 125.78 44.1869C125.039 43.5068 124.473 42.7067 124.066 41.7866C123.659 40.8664 123.459 39.8529 123.459 38.7594C123.459 36.5324 124.246 34.7855 125.82 33.5253C127.393 32.2651 129.5 31.4116 132.141 30.9582L140.008 29.6047C140.008 28.2845 139.575 27.3443 138.708 26.7976C137.841 26.2508 136.761 25.9708 135.474 25.9708C134.668 25.9708 134.041 26.0841 133.594 26.3108C133.141 26.5375 132.707 26.8442 132.294 27.231C132.007 27.491 131.734 27.6644 131.494 27.7644C131.254 27.8644 130.987 27.9111 130.694 27.9111H126.206C125.886 27.9111 125.606 27.811 125.386 27.6177C125.159 27.4243 125.079 27.1643 125.146 26.8442L125.153 26.8309ZM133.207 40.4997C134.301 40.4997 135.274 40.3463 136.128 40.0396C136.981 39.7329 137.695 39.3195 138.275 38.7994C138.855 38.2793 139.288 37.6993 139.575 37.0525C139.862 36.4057 140.008 35.7456 140.008 35.0655V34.5788L133.447 35.7389C132.127 35.9657 131.18 36.299 130.6 36.7324C130.02 37.1658 129.734 37.7593 129.734 38.506C129.734 39.1862 130.08 39.6862 130.774 40.0063C131.467 40.333 132.274 40.493 133.207 40.493V40.4997Z" fill="white"/>
<path d="M164.426 26.4441C162.499 26.4441 161.105 26.8709 160.252 27.731C159.398 28.5911 158.971 29.9847 158.971 31.925V44.5269C158.971 44.887 158.838 45.1937 158.585 45.4471C158.325 45.7071 158.018 45.8338 157.671 45.8338H154.004C153.651 45.8338 153.344 45.7005 153.09 45.4471C152.83 45.187 152.704 44.8803 152.704 44.5269V21.9368C152.704 21.5834 152.837 21.2767 153.09 21.0166C153.344 20.7566 153.657 20.6299 154.004 20.6299H157.671C158.025 20.6299 158.331 20.7632 158.585 21.0166C158.838 21.2767 158.971 21.5834 158.971 21.9368V23.0503C159.805 22.2768 160.698 21.6767 161.652 21.2566C162.599 20.8366 163.845 20.6299 165.392 20.6299H167.559C167.913 20.6299 168.219 20.7632 168.48 21.0166C168.733 21.2767 168.866 21.5834 168.866 21.9368V25.1373C168.866 25.4973 168.733 25.7974 168.48 26.0574C168.226 26.3174 167.913 26.4441 167.559 26.4441H164.426Z" fill="white"/>
<path d="M179.135 44.5269C179.135 44.887 179.001 45.1937 178.748 45.4471C178.488 45.7071 178.181 45.8338 177.828 45.8338H174.16C173.8 45.8338 173.5 45.7004 173.24 45.4471C172.98 45.187 172.854 44.8803 172.854 44.5269V12.7286C172.854 12.3752 172.98 12.0685 173.24 11.8085C173.5 11.5484 173.807 11.4218 174.16 11.4218H177.828C178.181 11.4218 178.488 11.5551 178.748 11.8085C179.001 12.0685 179.135 12.3752 179.135 12.7286V44.5269Z" fill="white"/>
<path d="M193.417 44.4803L183.862 22.2768C183.829 22.1768 183.815 22.0701 183.815 21.9368C183.815 21.5834 183.949 21.2767 184.202 21.0166C184.455 20.7566 184.769 20.6299 185.115 20.6299H188.729C189.116 20.6299 189.449 20.7632 189.743 21.0166C190.03 21.2767 190.223 21.5367 190.323 21.7901L196.737 36.7724L203.152 21.7901C203.245 21.53 203.438 21.27 203.732 21.0166C204.025 20.7632 204.358 20.6299 204.745 20.6299H208.359C208.712 20.6299 209.019 20.7632 209.279 21.0166C209.533 21.2767 209.666 21.5834 209.666 21.9368C209.666 22.0701 209.653 22.1768 209.619 22.2768L196.064 53.8817C195.97 54.1418 195.777 54.4018 195.484 54.6552C195.197 54.9152 194.857 55.0419 194.47 55.0419H190.856C190.503 55.0419 190.196 54.9086 189.943 54.6552C189.683 54.3951 189.556 54.0884 189.556 53.735C189.556 53.6017 189.569 53.495 189.603 53.395L193.41 44.4736L193.417 44.4803Z" fill="white"/>
<path d="M227.769 20.1431C229.376 20.1431 230.836 20.4632 232.136 21.0899C233.436 21.7167 234.55 22.5635 235.463 23.6103C236.377 24.6638 237.104 25.8707 237.637 27.2442C238.164 28.6178 238.464 30.0447 238.53 31.5316C238.564 32.0183 238.577 32.5851 238.577 33.2251C238.577 33.8652 238.564 34.4387 238.53 34.9187C238.47 36.4056 238.164 37.8392 237.637 39.2061C237.104 40.5796 236.383 41.7931 235.463 42.84C234.55 43.8935 233.436 44.7269 232.136 45.3604C230.836 45.9871 229.376 46.3072 227.769 46.3072C226.769 46.3072 225.882 46.2072 225.088 46.0138C224.302 45.8204 223.608 45.5804 223.015 45.287C222.421 44.9936 221.915 44.6803 221.494 44.3402C221.074 44.0002 220.734 43.6868 220.481 43.3934V44.5069C220.481 44.867 220.354 45.167 220.094 45.427C219.834 45.6871 219.527 45.8138 219.181 45.8138H215.514C215.16 45.8138 214.853 45.6804 214.6 45.427C214.34 45.167 214.213 44.8603 214.213 44.5069V12.7286C214.213 12.3752 214.347 12.0685 214.6 11.8085C214.853 11.5484 215.167 11.4218 215.514 11.4218H219.181C219.534 11.4218 219.841 11.5551 220.094 11.8085C220.348 12.0685 220.481 12.3752 220.481 12.7286V23.0502C220.734 22.7569 221.074 22.4435 221.494 22.1034C221.915 21.7634 222.421 21.45 223.015 21.1566C223.608 20.8632 224.302 20.6232 225.088 20.4298C225.875 20.2365 226.769 20.1364 227.769 20.1364V20.1431ZM232.256 31.8783C232.063 29.7779 231.416 28.2644 230.329 27.3442C229.236 26.4241 227.902 25.964 226.329 25.964C224.755 25.964 223.421 26.4508 222.348 27.4176C221.268 28.3844 220.654 29.7113 220.488 31.3915C220.421 31.8783 220.388 32.4917 220.388 33.2318C220.388 33.9719 220.421 34.5854 220.488 35.0721C220.648 36.819 221.268 38.1592 222.348 39.0927C223.421 40.0329 224.755 40.4996 226.329 40.4996C227.902 40.4996 229.242 40.0395 230.329 39.1194C231.423 38.1993 232.063 36.6924 232.256 34.5854C232.356 33.6785 232.356 32.7784 232.256 31.8716V31.8783Z" fill="white"/>
<path d="M249.285 11.4218C249.639 11.4218 249.946 11.5551 250.199 11.8085C250.452 12.0685 250.586 12.3752 250.586 12.7286V16.5092C250.586 16.8693 250.452 17.1693 250.199 17.4294C249.946 17.6894 249.632 17.8161 249.285 17.8161H245.138C244.785 17.8161 244.478 17.6894 244.225 17.4294C243.965 17.1693 243.838 16.8626 243.838 16.5092V12.7286C243.838 12.3752 243.971 12.0685 244.225 11.8085C244.478 11.5484 244.791 11.4218 245.138 11.4218H249.285ZM250.346 44.5269C250.346 44.887 250.219 45.1937 249.959 45.4471C249.699 45.7071 249.392 45.8338 249.045 45.8338H245.378C245.025 45.8338 244.718 45.7004 244.465 45.4471C244.205 45.187 244.078 44.8803 244.078 44.5269V21.9367C244.078 21.5833 244.205 21.2766 244.465 21.0166C244.725 20.7565 245.031 20.6299 245.378 20.6299H249.045C249.399 20.6299 249.706 20.7632 249.959 21.0166C250.212 21.2766 250.346 21.5833 250.346 21.9367V44.5269Z" fill="white"/>
<path d="M268.728 26.4441C266.802 26.4441 265.408 26.8709 264.554 27.731C263.701 28.5911 263.274 29.9847 263.274 31.925V44.5269C263.274 44.887 263.141 45.1937 262.888 45.4471C262.628 45.7071 262.321 45.8338 261.974 45.8338H258.307C257.953 45.8338 257.647 45.7005 257.393 45.4471C257.133 45.187 257.007 44.8803 257.007 44.5269V21.9368C257.007 21.5834 257.14 21.2767 257.393 21.0166C257.647 20.7566 257.96 20.6299 258.307 20.6299H261.974C262.327 20.6299 262.634 20.7632 262.888 21.0166C263.141 21.2767 263.274 21.5834 263.274 21.9368V23.0503C264.108 22.2768 265.001 21.6767 265.955 21.2566C266.902 20.8366 268.148 20.6299 269.695 20.6299H271.869C272.222 20.6299 272.529 20.7632 272.782 21.0166C273.036 21.2767 273.169 21.5834 273.169 21.9368V25.1373C273.169 25.4973 273.042 25.7974 272.782 26.0574C272.522 26.3174 272.216 26.4441 271.869 26.4441H268.735H268.728Z" fill="white"/>
<path d="M286.431 20.1498C287.431 20.1498 288.318 20.2498 289.112 20.4432C289.898 20.6366 290.592 20.8766 291.185 21.17C291.779 21.4633 292.285 21.7767 292.706 22.1168C293.119 22.4568 293.459 22.7702 293.719 23.0636V12.742C293.719 12.3886 293.852 12.0752 294.106 11.8218C294.359 11.5618 294.673 11.4351 295.026 11.4351H298.693C299.047 11.4351 299.353 11.5685 299.613 11.8218C299.867 12.0819 300 12.3886 300 12.742V44.5403C300 44.9003 299.873 45.2004 299.613 45.4604C299.353 45.7205 299.047 45.8471 298.693 45.8471H295.026C294.673 45.8471 294.366 45.7138 294.106 45.4604C293.846 45.2004 293.719 44.8937 293.719 44.5403V43.4268C293.466 43.7201 293.119 44.0335 292.706 44.3736C292.285 44.7136 291.779 45.027 291.185 45.3204C290.585 45.6138 289.898 45.8538 289.112 46.0472C288.325 46.2405 287.431 46.3405 286.431 46.3405C284.818 46.3405 283.364 46.0205 282.064 45.3937C280.764 44.767 279.65 43.9268 278.737 42.8733C277.823 41.8198 277.096 40.613 276.57 39.2394C276.036 37.8659 275.743 36.439 275.676 34.9521C275.643 34.4654 275.63 33.8986 275.63 33.2585C275.63 32.6184 275.643 32.045 275.676 31.5649C275.736 30.078 276.043 28.6511 276.57 27.2776C277.103 25.904 277.823 24.6905 278.737 23.6437C279.65 22.5902 280.764 21.7567 282.064 21.1233C283.364 20.4965 284.818 20.1765 286.431 20.1765V20.1498ZM281.944 31.8716C281.851 32.7784 281.851 33.6852 281.944 34.5854C282.137 36.6857 282.777 38.1993 283.871 39.1194C284.964 40.0396 286.298 40.4996 287.871 40.4996C289.445 40.4996 290.772 40.0329 291.852 39.0928C292.926 38.1593 293.546 36.8124 293.712 35.0721C293.772 34.5854 293.806 33.972 293.806 33.2318C293.806 32.4917 293.772 31.8783 293.712 31.3916C293.552 29.7113 292.932 28.3844 291.852 27.4176C290.772 26.4508 289.445 25.964 287.871 25.964C286.298 25.964 284.958 26.4241 283.871 27.3443C282.777 28.2644 282.137 29.778 281.944 31.8783V31.8716Z" fill="white"/>
<path d="M65.5235 0H10.6683C4.77408 0 0 4.77408 0 10.6683V65.5369C0 67.1171 1.75361 68.0773 3.08048 67.2171L16.8426 58.3691C17.1627 58.1624 17.5427 58.049 17.9228 58.049H56.8555C62.7498 58.049 67.5238 53.275 67.5238 47.3807V2.00031C67.5238 0.893472 66.6304 0 65.5235 0Z" fill="url(#paint0_linear_11_2395)"/>
<mask id="mask0_11_2395" style="mask-type:luminance" maskUnits="userSpaceOnUse" x="0" y="0" width="68" height="68">
<path d="M65.5235 0H10.6683C4.77408 0 0 4.77408 0 10.6683V65.5369C0 67.1171 1.75361 68.0773 3.08048 67.2171L16.8426 58.3691C17.1627 58.1624 17.5427 58.049 17.9228 58.049H56.8555C62.7498 58.049 67.5238 53.275 67.5238 47.3807V2.00031C67.5238 0.893472 66.6304 0 65.5235 0Z" fill="white"/>
</mask>
<g mask="url(#mask0_11_2395)">
<path d="M53.195 35.4322C47.4474 34.3654 43.8535 36.139 41.1264 38.0726C35.1055 42.3466 33.8986 49.021 33.8986 58.5225H17.3761L3.14718 67.5439C2.33372 68.0439 1.64694 67.6372 0.880157 67.3238C1.42024 64.3767 8.15462 31.1582 38.2526 31.1582C46.774 31.1582 53.195 35.4322 53.195 35.4322Z" fill="url(#paint1_linear_11_2395)"/>
<path d="M41.6998 21.3167C41.6998 9.5815 28.3511 7.63453 20.4032 7.63453H13.6088C4.88077 7.62786 -0.893463 13.3354 -0.893463 13.3354V58.5224H-0.853457V64.7301C-0.853457 65.9569 -0.100006 66.9104 0.880146 67.3172C1.42023 64.37 8.15461 31.1515 38.2526 31.1515C45.3471 31.1515 53.195 35.4255 53.195 35.4255C53.195 35.4255 54.8952 23.1636 41.6998 21.31V21.3167ZM29.1712 20.5299C28.3444 21.3633 26.7175 22.5902 24.6505 22.0301C22.5835 21.5434 21.6167 20.1298 21.1966 19.223C21.0099 18.8029 21.27 18.3229 21.7234 18.2762C22.4702 18.1962 23.7104 18.1495 25.3306 18.4162C26.9909 18.6896 28.2111 19.123 28.9445 19.443C29.3712 19.6297 29.4979 20.1965 29.1645 20.5299H29.1712Z" fill="url(#paint2_linear_11_2395)"/>
</g>
<defs>
<linearGradient id="paint0_linear_11_2395" x1="7.03443" y1="4.64739" x2="53.9417" y2="55.7487" gradientUnits="userSpaceOnUse">
<stop stop-color="white" stop-opacity="0.6"/>
<stop offset="1" stop-color="white" stop-opacity="0.2"/>
</linearGradient>
<linearGradient id="paint1_linear_11_2395" x1="2.90714" y1="55.222" x2="52.3882" y2="38.146" gradientUnits="userSpaceOnUse">
<stop stop-color="white" stop-opacity="0.7"/>
<stop offset="1" stop-color="white" stop-opacity="0.2"/>
</linearGradient>
<linearGradient id="paint2_linear_11_2395" x1="-1.19351" y1="24.8905" x2="36.9991" y2="52.8016" gradientUnits="userSpaceOnUse">
<stop stop-color="white"/>
<stop offset="1" stop-color="#FAFAFA"/>
</linearGradient>
</defs>
</svg>
