<svg width="300" height="70" viewBox="0 0 300 70" fill="none" xmlns="http://www.w3.org/2000/svg">
<path d="M120.238 58.1774V33.7488C120.233 33.6775 120.245 33.6061 120.271 33.5397C120.298 33.4724 120.338 33.4112 120.39 33.3599C120.44 33.3081 120.501 33.2675 120.569 33.2407C120.635 33.2142 120.706 33.2027 120.777 33.2073H125.542C125.67 33.1943 125.799 33.2229 125.91 33.2888C126.022 33.3548 126.109 33.4543 126.16 33.5732L133.75 52.7137L141.342 33.569C141.392 33.4497 141.48 33.3499 141.592 33.2846C141.702 33.217 141.832 33.189 141.96 33.2052H146.719C146.79 33.199 146.861 33.2105 146.927 33.2386C146.997 33.2624 147.059 33.3026 147.11 33.3557C147.16 33.4078 147.199 33.4688 147.225 33.5355C147.253 33.6052 147.264 33.6803 147.258 33.7551V58.1816C147.263 58.2529 147.251 58.3242 147.225 58.3907C147.199 58.4593 147.16 58.5224 147.11 58.5768C147.058 58.6268 146.995 58.6653 146.927 58.6897C146.861 58.7159 146.79 58.7273 146.719 58.7231H142.617C142.546 58.7271 142.475 58.7157 142.408 58.6897C142.34 58.6653 142.278 58.6268 142.225 58.5768C142.176 58.5229 142.137 58.4596 142.113 58.3907C142.087 58.324 142.076 58.2528 142.079 58.1816V42.9385L136.246 58.2903C136.194 58.4192 136.104 58.5288 135.988 58.6039C135.871 58.6795 135.734 58.7161 135.596 58.7085H131.952C131.813 58.7167 131.674 58.6808 131.557 58.6057C131.439 58.5307 131.348 58.4203 131.296 58.2903L125.463 42.9385V58.1774C125.464 58.2486 125.453 58.3195 125.429 58.3865C125.405 58.4564 125.364 58.5195 125.31 58.5705C125.258 58.6224 125.196 58.663 125.127 58.6897C125.06 58.7136 124.99 58.725 124.919 58.7231H120.815C120.742 58.7357 120.667 58.7357 120.594 58.7231C120.522 58.6984 120.457 58.6586 120.402 58.6062C120.348 58.5539 120.305 58.4904 120.277 58.4199C120.249 58.3488 120.238 58.2724 120.244 58.1962L120.238 58.1774Z" fill="white"/>
<path d="M150.625 49.7843C150.625 44.4963 154.075 40.4127 159.09 40.4127C161.781 40.4127 163.708 41.5062 164.902 43.34L164.977 41.3724C164.976 41.3013 164.987 41.2304 165.01 41.1633C165.038 41.096 165.078 41.0349 165.129 40.9835C165.18 40.9322 165.241 40.8916 165.308 40.8643C165.375 40.84 165.446 40.8287 165.517 40.8308H169.077C169.148 40.827 169.219 40.8384 169.285 40.8643C169.355 40.8894 169.418 40.9302 169.469 40.9835C169.521 41.0349 169.561 41.0969 169.588 41.1654C169.613 41.2319 169.624 41.3033 169.619 41.3745V58.1439C169.62 58.2196 169.605 58.2947 169.573 58.3635C169.544 58.4321 169.502 58.494 169.448 58.5451C169.394 58.5962 169.33 58.6355 169.26 58.6604C169.19 58.6857 169.114 58.6957 169.04 58.6897H165.51C165.439 58.6948 165.368 58.6834 165.302 58.6562C165.232 58.6317 165.168 58.5908 165.117 58.537C165.067 58.4848 165.029 58.423 165.004 58.3555C164.979 58.2879 164.967 58.2159 164.971 58.1439L164.896 56.1784C164.259 57.1275 163.39 57.897 162.372 58.4138C161.355 58.9306 160.223 59.1775 159.083 59.1308C154.065 59.1622 150.625 55.1162 150.625 49.7843ZM160.148 54.5621C162.796 54.5621 164.648 52.6656 164.648 49.7843C164.648 46.903 162.796 45.0086 160.148 45.0086C157.5 45.0086 155.529 46.9364 155.529 49.7843C155.529 52.6322 157.479 54.5747 160.137 54.5747L160.148 54.5621Z" fill="white"/>
<path d="M175.131 64.1617C174.973 64.0479 174.863 63.8796 174.821 63.6891C174.777 63.4925 174.811 63.2865 174.915 63.1141L175.956 61.111C175.988 61.0247 176.039 60.9469 176.106 60.8835C176.172 60.8201 176.252 60.7728 176.34 60.7451C176.429 60.7242 176.523 60.7242 176.612 60.7451C176.706 60.762 176.795 60.7968 176.875 60.8475C178.311 61.686 179.937 62.1396 181.598 62.1648C184.098 62.1648 186.687 61.065 186.687 57.7467V55.8083C185.558 57.4142 183.702 58.4011 181.162 58.4011C176.162 58.4011 172.769 54.719 172.769 49.4289C172.769 44.1388 176.177 40.4587 181.181 40.4587C183.802 40.4587 185.615 41.408 186.744 43.0849L186.815 41.4456C186.814 41.3731 186.83 41.3014 186.862 41.2365C186.89 41.1655 186.933 41.1018 186.99 41.0504C187.044 40.9988 187.107 40.9583 187.177 40.9312C187.249 40.9087 187.325 40.8995 187.4 40.904H190.958C191.029 40.9012 191.1 40.9126 191.167 40.9375C191.233 40.9648 191.294 41.0045 191.346 41.0546C191.397 41.1083 191.436 41.1715 191.462 41.2407C191.486 41.3079 191.497 41.3787 191.496 41.4498V57.7592C191.496 64.1742 186.496 66.2171 182.087 66.2171C179.415 66.2045 176.875 65.4706 175.131 64.1617ZM182.144 53.8408C184.683 53.8408 186.5 52.1262 186.5 49.3912C186.5 46.6563 184.683 44.9417 182.144 44.9417C179.604 44.9417 177.671 46.696 177.671 49.3912C177.671 52.0865 179.56 53.8408 182.144 53.8408Z" fill="white"/>
<path d="M195.542 34.878C195.539 34.5108 195.61 34.1468 195.75 33.8074C195.893 33.4694 196.1 33.162 196.358 32.9021C196.621 32.6451 196.931 32.442 197.271 32.3041C197.61 32.1677 197.973 32.1016 198.338 32.1096C199.056 32.1375 199.736 32.4436 200.234 32.9637C200.733 33.4837 201.011 34.1773 201.011 34.8989C201.011 35.6205 200.733 36.3141 200.234 36.8342C199.736 37.3542 199.056 37.6603 198.338 37.6883C197.968 37.6894 197.603 37.6184 197.26 37.4792C196.919 37.3389 196.609 37.132 196.348 36.8703C196.086 36.6086 195.88 36.2974 195.74 35.9549C195.604 35.6124 195.537 35.2465 195.542 34.878ZM195.798 41.4018C195.791 41.2918 195.819 41.1824 195.878 41.0895C195.938 40.9966 196.025 40.9251 196.127 40.8853C196.194 40.8604 196.264 40.849 196.335 40.8519H200.294C200.365 40.848 200.436 40.8594 200.502 40.8853C200.571 40.9096 200.634 40.9497 200.685 41.0024C200.738 41.0543 200.778 41.1171 200.804 41.1864C200.83 41.2528 200.841 41.3243 200.835 41.3955V58.1649C200.839 58.236 200.829 58.3071 200.804 58.374C200.778 58.4429 200.737 58.5055 200.685 58.558C200.634 58.6113 200.572 58.6521 200.502 58.6772C200.435 58.7001 200.365 58.7114 200.294 58.7107H196.335C196.265 58.7105 196.194 58.6993 196.127 58.6772C196.06 58.6508 195.999 58.6101 195.948 58.558C195.894 58.5074 195.853 58.4442 195.829 58.374C195.804 58.3074 195.793 58.2361 195.798 58.1649V41.4018Z" fill="white"/>
<path d="M203.906 49.7174C203.879 48.4861 204.101 47.2621 204.559 46.1195C205.017 44.9769 205.702 43.9396 206.571 43.0704C207.441 42.2011 208.477 41.5181 209.617 41.0627C210.757 40.6073 211.977 40.389 213.204 40.421C214.523 40.3842 215.833 40.6547 217.031 41.2112C218.228 41.7677 219.281 42.5951 220.106 43.6286C220.154 43.6826 220.191 43.7459 220.215 43.8146C220.234 43.8825 220.242 43.9532 220.238 44.0237C220.231 44.0972 220.209 44.1683 220.173 44.2328C220.139 44.296 220.093 44.351 220.035 44.3938L217.877 46.5496C217.819 46.6145 217.748 46.6665 217.669 46.7023C217.588 46.7362 217.502 46.7539 217.415 46.7545C217.325 46.7541 217.237 46.7364 217.154 46.7023C217.075 46.6668 217.004 46.6148 216.946 46.5496C216.504 46.065 215.964 45.6807 215.362 45.4225C214.76 45.1643 214.111 45.0381 213.456 45.0525C212.837 45.0258 212.218 45.1275 211.64 45.3515C211.061 45.5759 210.536 45.9183 210.096 46.357C209.656 46.7958 209.312 47.3213 209.085 47.9004C208.855 48.4778 208.748 49.0978 208.773 49.7195C208.751 50.3581 208.861 50.9943 209.094 51.5889C209.327 52.1834 209.68 52.7235 210.129 53.1758C210.577 53.6288 211.113 53.9847 211.704 54.2213C212.296 54.4539 212.929 54.5634 213.565 54.5433C214.207 54.5468 214.842 54.4159 215.431 54.1588C216.02 53.9017 216.548 53.5242 216.983 53.0504C217.04 52.9848 217.112 52.9333 217.192 52.8998C217.273 52.8614 217.362 52.8421 217.452 52.8434C217.63 52.8484 217.799 52.9235 217.923 53.0525L220.104 55.1999C220.16 55.2459 220.207 55.3019 220.242 55.3651C220.277 55.4294 220.299 55.5007 220.304 55.5742C220.31 55.6448 220.302 55.716 220.279 55.7832C220.258 55.8521 220.223 55.9156 220.175 55.9693C219.357 56.9946 218.314 57.8162 217.127 58.3701C215.94 58.924 214.642 59.195 213.333 59.1622C212.088 59.1943 210.849 58.9721 209.692 58.509C208.535 58.046 207.483 57.3518 206.601 56.4685C205.72 55.5853 205.026 54.5314 204.562 53.3709C204.099 52.2104 203.875 50.9674 203.904 49.7174H203.906Z" fill="white"/>
<path d="M223.769 58.1773V33.7488C223.767 33.6776 223.779 33.6068 223.802 33.5397C223.827 33.4714 223.868 33.4098 223.921 33.3598C223.971 33.3075 224.032 33.2669 224.1 33.2407C224.167 33.2164 224.237 33.205 224.308 33.2072H228.415C228.486 33.203 228.557 33.2144 228.623 33.2407C228.693 33.2652 228.757 33.306 228.808 33.3598C228.86 33.4116 228.9 33.4735 228.927 33.5418C228.952 33.6085 228.963 33.6797 228.958 33.7508V54.0937H236.731C236.802 54.0919 236.873 54.1032 236.94 54.1272C237.008 54.1538 237.071 54.1944 237.123 54.2463C237.173 54.2989 237.211 54.3617 237.235 54.4303C237.263 54.4963 237.275 54.5681 237.269 54.6394V58.1752C237.274 58.2462 237.264 58.3175 237.24 58.3843C237.215 58.4531 237.175 58.5153 237.123 58.5662C237.072 58.6177 237.011 58.6582 236.944 58.6854C236.876 58.7071 236.806 58.7183 236.735 58.7189H224.312C224.242 58.7189 224.171 58.7076 224.104 58.6854C224.037 58.6592 223.975 58.6185 223.925 58.5662C223.871 58.5156 223.83 58.4524 223.806 58.3822C223.782 58.3152 223.771 58.2443 223.773 58.1731L223.769 58.1773Z" fill="white"/>
<path d="M238.763 49.7843C238.763 44.4963 242.215 40.4127 247.229 40.4127C249.915 40.4127 251.842 41.5062 253.062 43.34L253.133 41.3724C253.131 41.3012 253.142 41.2302 253.167 41.1633C253.193 41.0957 253.234 41.0344 253.285 40.9835C253.336 40.9312 253.397 40.8905 253.465 40.8643C253.531 40.8379 253.602 40.8265 253.673 40.8308H257.233C257.304 40.829 257.375 40.8403 257.442 40.8643C257.545 40.9059 257.632 40.9791 257.692 41.0734C257.751 41.1668 257.778 41.2767 257.771 41.387V58.1565C257.772 58.2322 257.757 58.3073 257.725 58.376C257.696 58.4446 257.654 58.5065 257.6 58.5576C257.546 58.6088 257.482 58.6481 257.412 58.6729C257.342 58.6982 257.267 58.7082 257.192 58.7022H253.65C253.579 58.7073 253.508 58.6973 253.442 58.6729C253.374 58.6462 253.311 58.6065 253.258 58.5558C253.207 58.5038 253.167 58.4411 253.142 58.3722C253.117 58.3033 253.107 58.2297 253.112 58.1565L253.042 56.191C251.792 58.0143 249.873 59.1434 247.208 59.1434C242.215 59.1622 238.763 55.1162 238.763 49.7843ZM248.281 54.5621C250.935 54.5621 252.792 52.6656 252.792 49.7843C252.792 46.903 250.935 45.0086 248.281 45.0086C245.627 45.0086 243.669 46.9364 243.669 49.7843C243.669 52.6322 245.625 54.5747 248.281 54.5747V54.5621Z" fill="white"/>
<path d="M262.083 58.1774V41.4122C262.079 41.3409 262.091 41.2695 262.117 41.2031C262.142 41.1365 262.181 41.0754 262.229 41.0233C262.283 40.9717 262.346 40.9312 262.415 40.9041C262.481 40.8779 262.552 40.8665 262.623 40.8706H266.4C266.721 40.8706 266.938 41.0191 266.938 41.454L267.083 43.545C267.594 42.566 268.37 41.752 269.322 41.197C270.273 40.642 271.362 40.3686 272.463 40.4085C276.169 40.4085 278.892 43.1038 278.892 47.7729V58.1586C278.892 58.2304 278.878 58.3016 278.85 58.3677C278.82 58.437 278.777 58.4996 278.723 58.5517C278.669 58.6027 278.604 58.6412 278.533 58.6646C278.463 58.6923 278.388 58.7037 278.313 58.6981H274.45C274.375 58.7048 274.3 58.6933 274.231 58.6646C274.165 58.6378 274.105 58.598 274.054 58.5475C274.002 58.4958 273.962 58.4339 273.935 58.3656C273.908 58.2995 273.897 58.2279 273.902 58.1565V48.9292C273.902 46.42 272.74 45.0609 270.596 45.0609C268.452 45.0609 267.108 46.4117 267.108 48.9292V58.1879C267.11 58.2591 267.099 58.33 267.075 58.397C267.051 58.4672 267.01 58.5304 266.956 58.581C266.905 58.6324 266.844 58.673 266.777 58.7002C266.71 58.7224 266.64 58.7337 266.569 58.7336H262.642C262.566 58.7388 262.49 58.7288 262.419 58.7044C262.349 58.6803 262.287 58.6402 262.235 58.5873C262.179 58.5372 262.136 58.473 262.113 58.4012C262.085 58.3351 262.074 58.2634 262.079 58.1921L262.083 58.1774Z" fill="white"/>
<path d="M282.292 49.7195C282.292 44.4691 285.96 40.421 291.458 40.421C296.875 40.421 300 44.4315 300 48.9521C300 50.7001 299.583 51.6703 298.035 51.6703H287.177C287.719 53.9348 289.575 55.1727 292.446 55.1727C293.9 55.2002 295.334 54.8208 296.585 54.077C296.636 54.0432 296.693 54.0191 296.752 54.0059C296.811 53.9913 296.872 53.9913 296.931 54.0059C296.99 54.0215 297.044 54.0493 297.092 54.0875C297.138 54.1247 297.176 54.1709 297.204 54.2234L298.546 56.0864C298.729 56.3415 298.692 56.5987 298.371 56.8873C296.838 58.4178 294.556 59.1476 292.044 59.1476C286.208 59.1622 282.292 55.1162 282.292 49.7195ZM295.512 48.1513C295.219 45.7801 293.623 44.5778 291.479 44.5778C289.26 44.5778 287.556 45.7801 287.123 48.1513H295.512Z" fill="white"/>
<path d="M98.7104 33.9788C98.2937 32.7243 97.6687 31.108 97.2 29.8848C98.4917 35.0494 92.1896 40.0217 88.6583 42.4995C89.3708 43.8837 89.7625 44.5381 89.7625 44.5381C89.7625 44.5381 100.356 38.9553 98.7104 33.9788Z" fill="white"/>
<path d="M93.7292 47.9777C96.2521 46.79 99.3542 45.4895 100.523 42.7754C100.75 42.238 100.315 40.7723 100.273 40.2203L99.7917 38.0164C100 42.0687 93.8375 45.1466 90.625 46.6709C91.0583 48.0572 91.3313 48.8915 91.3313 48.8915C91.3313 48.8915 92.4187 48.4858 93.7292 47.9777Z" fill="white"/>
<path d="M0 56.8956C0.235417 59.7664 0.833333 63.5657 1.32708 66.4052C2.525 73.3367 51.0604 68.6655 53.375 61.1318V58.7565C53.0917 63.0952 4.18125 62.7293 0 56.8956Z" fill="white"/>
<path d="M2.52708 37.477C1.74583 39.7289 0.78958 44.6322 0.416663 46.9971C0.0833298 49.1089 40.4687 57.9202 52.7229 56.5402C53.3479 56.4691 53.6687 56.3415 53.7104 56.1659L54.0354 54.7441L54.3479 53.6735C52.8229 53.4059 22.7437 44.6719 2.52708 37.477Z" fill="white"/>
<path d="M56.3917 49.1674C56.25 44.1031 16.1229 18.8507 11.3167 20.7012C9.65 22.9824 7.69584 26.1983 6.24167 28.6155C6.7875 27.5449 52.9083 46.6206 55.2396 51.3232C55.5708 50.6729 56.0417 49.8114 56.3917 49.1674Z" fill="white"/>
<path d="M58.6167 40.3562C53.0625 29.0169 39.7521 14.6856 28.5229 8.90617C24.7021 7.12886 24.0688 8.99817 21.3938 10.6605L17.5167 13.9119C21.3875 10.42 55.9813 36.6196 57.6958 47.1915C58.1878 45.8644 58.7783 44.5762 59.4625 43.3378C59.4625 43.3378 59.1208 41.2992 58.6167 40.3562Z" fill="white"/>
<path d="M63.8854 37.6861C62.2292 20.7807 46.925 -0.390156 40 1.62343C37.6687 2.3009 34.6417 3.40074 32.3333 4.27685C33.2771 3.97366 34.625 4.23503 36.2333 5.03586C46.4312 11.131 54.0958 22.351 59.25 32.8936C60.2812 35.2166 61.1854 37.6463 61.5292 40.1785C62.2413 39.2808 63.0296 38.4469 63.8854 37.6861Z" fill="white"/>
<path d="M62.9354 6.12115C58.3521 -0.88562 55.6313 -0.151697 48.1438 0.222583C57.7563 1.62561 67.1458 23.4781 66.5104 35.7687C67.38 35.2515 68.2974 34.8201 69.25 34.4807C69.5375 32.7243 71.4229 19.0683 62.9354 6.12115Z" fill="white"/>
<path d="M74.7625 33.615C77.7083 24.9731 78.0146 12.8289 72.375 5.22826C70.2437 2.54766 66.3646 2.31348 63.2771 1.27637C64.3708 1.65065 74.1104 6.99302 72.8604 29.1592C72.6938 32.12 72.0271 33.7969 72.0271 33.7969C72.0271 33.7969 72.8771 33.7091 74.7625 33.615Z" fill="white"/>
<path d="M83.0437 11.5848C82.0229 9.42692 76.1375 6.18176 76.1375 6.18176C76.8964 6.69253 77.5477 7.34833 78.0542 8.11171C84.6187 18.0019 78.2521 32.2015 77.3937 33.9329C78.9458 34.3657 79.8937 34.7086 79.8937 34.7086C79.8937 34.7086 87.8271 21.6966 83.0437 11.5848Z" fill="white"/>
<path d="M89.6833 17.4143C88.6625 16.2392 87.2562 14.7588 86.1312 13.5942C89.9937 18.0542 87.5562 28.5905 82.1437 35.8461C82.8259 36.264 83.4801 36.7264 84.1021 37.2303C88.5958 32.235 93.8458 22.2089 89.6833 17.4143Z" fill="white"/>
<path d="M95.675 27.1979C95.65 26.1859 94.6542 24.764 94.2062 23.8963L92.8792 21.774C93.2104 22.3448 96.3292 29.1404 85.7958 38.8361C86.7479 39.9694 87.3104 40.6134 87.3104 40.6134C87.3104 40.6134 95.8333 34.0646 95.675 27.1979Z" fill="white"/>
<path d="M101.231 49.8302C101.202 48.6656 101.127 47.112 101.06 45.939C101.1 46.445 100.815 46.8987 100.481 47.2521C98.1521 49.4915 94.8917 50.4011 91.8458 51.204C92.075 52.6258 92.1562 53.573 92.1562 53.573C92.1562 53.573 101.292 52.3477 101.231 49.8302Z" fill="white"/>
<path d="M100.523 54.4931C98.1708 56.0216 92.2792 56.009 92.2792 56.009L92.1625 58.5474C92.8521 58.5851 99.3271 59.0514 100.75 57.5772C100.873 56.6363 101.052 54.6938 101.123 53.7424C101.085 54.0833 100.79 54.3195 100.523 54.4931Z" fill="white"/>
<path d="M76.5521 46.5225C76.9021 46.9825 77.3854 47.777 77.3854 47.777C82.7313 48.3876 88.6958 45.1152 89.7729 44.5277C89.434 43.8223 89.066 43.1428 88.6688 42.489C84.6938 45.1194 80.0688 46.8382 76.5521 46.5225Z" fill="white"/>
<path d="M78.0437 49.1381C78.0437 49.1381 78.5291 50.3551 78.5916 50.5704C83.1312 51.2688 88.9708 49.7132 91.3437 48.8872C91.1354 48.1303 90.9062 47.3859 90.6354 46.6646C89.1396 47.3316 83.05 49.7968 78.0437 49.1381Z" fill="white"/>
<path d="M59.125 45.5521C59.3812 45.2513 59.5485 44.8845 59.6082 44.4933C59.6678 44.102 59.6174 43.7018 59.4625 43.3378C59.4625 43.3378 57.825 46.4387 57.6958 47.1915L59.125 45.5521Z" fill="white"/>
<path d="M60.5896 44.258C63.2833 42.7107 64.0896 40.9334 63.8854 37.684C63.0275 38.4467 62.2358 39.2812 61.5188 40.1785C61.5979 40.925 61.8896 43.0578 60.5896 44.258Z" fill="white"/>
<path d="M63.4937 42.4472C68.1958 41.4895 69.075 35.892 69.2542 34.4911C68.3016 34.8305 67.3841 35.2618 66.5146 35.7791C66.5146 36.835 66 41.2051 63.4937 42.4472Z" fill="white"/>
<path d="M66.0292 41.7091C71.1313 42.4012 74.5313 34.878 74.7625 33.6151C73.85 33.6225 72.9387 33.6839 72.0333 33.7991C71.8542 34.464 69.8833 41.0128 66.0292 41.7091Z" fill="white"/>
<path d="M68.5729 41.6902C73.4417 43.4174 77.8563 38.0854 79.8854 34.7085C79.0768 34.3758 78.2401 34.1162 77.3854 33.9328C76.6083 35.547 73.2917 41.8199 68.5729 41.6902Z" fill="white"/>
<path d="M71.7979 42.6417C76.3979 45.5397 83.025 38.4096 84.1021 37.2303C83.4798 36.726 82.8248 36.2636 82.1417 35.8461C78.6729 40.5068 74.7792 42.7399 71.7979 42.6417Z" fill="white"/>
<path d="M74.4521 44.2851C77.3875 48.0614 87.2417 40.8142 87.3167 40.6134C86.8448 39.9934 86.3392 39.4001 85.8021 38.8361C83.8188 40.7138 78.9583 44.5381 74.4521 44.2851Z" fill="white"/>
<path d="M79.0083 52.0822C79.1216 52.5917 79.2078 53.1068 79.2667 53.6254C81.0729 53.9913 88.2646 54.169 92.1563 53.5731C92.0868 52.7729 91.9833 51.9833 91.8458 51.204C90.3062 51.5762 83.0687 52.8099 79.0083 52.0822Z" fill="white"/>
<path d="M92.2792 56.0091C87.7646 56.2558 81.8625 55.754 79.3625 55.1895C79.392 55.747 79.383 56.3059 79.3354 56.8622C81.3771 57.3829 84.3188 58.1419 92.1521 58.5496C92.2375 57.7111 92.2792 56.8748 92.2792 56.0091Z" fill="white"/>
</svg>
