<svg width="227" height="60" viewBox="0 0 227 60" fill="none" xmlns="http://www.w3.org/2000/svg">
<path fill-rule="evenodd" clip-rule="evenodd" d="M26.0641 29.5627V60L20.9913 57.0262V26.9388L43.5569 14.1691L38.309 11.1953L15.3936 23.965V54.2274L10.4956 51.6035V20.9913L32.8863 8.3965L27.9883 5.59767L4.89796 18.0175V48.2799L0 45.4811V15.2187L27.9883 0L53.8776 14.1691L26.0641 29.5627ZM55.8017 17.3178V28.688L50.7289 31.6618V25.5394L34.8105 34.2857V51.6035L50.7289 43.0321V36.9096L55.8017 34.2857V46.0058L29.7376 60V31.6618L55.8017 17.3178ZM113.179 26.5162C118.166 26.5162 121.792 22.7524 121.792 18.1574V18.1113C121.792 13.5163 118.213 9.79874 113.225 9.79874C108.237 9.79874 104.612 13.5625 104.612 18.1574V18.2037C104.612 22.7986 108.191 26.5162 113.179 26.5162ZM113.225 23.2373C110.362 23.2373 108.33 20.9283 108.33 18.1574V18.1113C108.33 15.3404 110.316 13.0776 113.179 13.0776C116.042 13.0776 118.074 15.3866 118.074 18.1574V18.2037C118.074 20.9745 116.088 23.2373 113.225 23.2373ZM81.3565 26.2391H84.8432V15.756L89.3458 22.5908H89.4381L93.9869 15.6868V26.2391H97.5198V10.0758H93.6868L89.4381 16.9106L85.1895 10.0758H81.3565V26.2391ZM135.175 26.2391H128.871V10.0758H135.175C140.255 10.0758 143.765 13.5625 143.765 18.1113V18.1574C143.765 22.7063 140.255 26.2391 135.175 26.2391ZM140.047 18.1574C140.047 15.2943 138.084 13.2854 135.175 13.2854H132.427V23.0295H135.175C138.084 23.0295 140.047 21.0668 140.047 18.2037V18.1574ZM157.601 26.4931C161.942 26.4931 164.69 24.0917 164.69 19.1965V10.0758H161.134V19.3351C161.134 21.8981 159.818 23.2142 157.647 23.2142C155.477 23.2142 154.16 21.8519 154.16 19.2196V10.0758H150.605V19.312C150.605 24.0686 153.26 26.4931 157.601 26.4931ZM183.851 26.2391H172.237V10.0758H175.793V23.0064H183.851V26.2391ZM189.073 26.2391H192.698L194.176 22.6139H201.011L202.489 26.2391H206.206L199.279 9.96038H196L189.073 26.2391ZM195.446 19.4736L197.593 14.2321L199.741 19.4736H195.446ZM216.182 26.2391H212.626V10.0758H220.015C222.07 10.0758 223.663 10.6531 224.726 11.7152C225.626 12.6158 226.111 13.8857 226.111 15.4097V15.4559C226.111 18.0651 224.702 19.7045 222.647 20.4665L226.596 26.2391H222.44L218.976 21.0668H216.182V26.2391ZM216.182 13.2854V17.9266H219.784C221.516 17.9266 222.509 17.0029 222.509 15.6406V15.5944C222.509 14.0704 221.447 13.2854 219.715 13.2854H216.182ZM88.3588 48.8859C91.0692 48.8859 92.7764 47.8401 94.3343 46.2609L93.2246 45.1725C91.7948 46.5383 90.4503 47.3279 88.4015 47.3279C85.115 47.3279 82.6181 44.6176 82.6181 41.1604V41.1177C82.6181 37.6818 85.0936 34.9928 88.4015 34.9928C90.4289 34.9928 91.8374 35.8464 93.0966 37.0415L94.249 35.8038C92.7551 34.3952 91.1332 33.4349 88.4229 33.4349C84.0266 33.4349 80.8681 36.9348 80.8681 41.1604V41.2031C80.8681 45.4926 84.0479 48.8859 88.3588 48.8859ZM103.069 48.6297H101.34L108.148 33.5843H109.727L116.535 48.6297H114.721L112.971 44.6817H104.84L103.069 48.6297ZM108.916 35.5477L105.502 43.1451H112.31L108.916 35.5477ZM124.816 48.6297H126.502V43.3585H130.13C133.31 43.3585 135.999 41.6939 135.999 38.4714V38.4287C135.999 35.4836 133.78 33.691 130.408 33.691H124.816V48.6297ZM126.502 41.8219V35.2489H130.28C132.691 35.2489 134.292 36.3586 134.292 38.4927V38.5354C134.292 40.4988 132.67 41.8219 130.194 41.8219H126.502ZM146.242 48.6297H144.556V33.691H146.242V48.6297ZM159.901 48.6297H161.608V35.2489H166.623V33.691H154.886V35.2489H159.901V48.6297ZM173.657 48.6297H171.928L178.736 33.5843H180.315L187.123 48.6297H185.309L183.559 44.6817H175.428L173.657 48.6297ZM179.505 35.5477L176.09 43.1451H182.898L179.505 35.5477ZM195.404 48.6297H205.499V47.0719H197.09V33.691H195.404V48.6297ZM69.7959 8.92128H67.3469V50.9038H69.7959V8.92128Z" fill="#AAAAAA"/>
</svg>
