<svg width="200" height="68" fill="none" xmlns="http://www.w3.org/2000/svg"><path d="M132.478 21.564a19.357 19.357 0 0 0-7.393-8.082 24.134 24.134 0 0 0-22.92 0 19.254 19.254 0 0 0-7.394 8.082 29.843 29.843 0 0 0-.067 24.162 19.223 19.223 0 0 0 7.394 8.081 24.262 24.262 0 0 0 22.972 0 19.357 19.357 0 0 0 7.393-8.081 29.332 29.332 0 0 0 0-24.162h.015zm-7.715 20.129a11.415 11.415 0 0 1-4.2 5.327 12.09 12.09 0 0 1-7.023 1.815 12.659 12.659 0 0 1-7.024-1.967 11.239 11.239 0 0 1-4.185-5.223 20.7 20.7 0 0 1-1.375-7.99 21.133 21.133 0 0 1 1.408-8.047 11.265 11.265 0 0 1 4.185-5.309 11.829 11.829 0 0 1 7.024-1.815c2.48-.06 4.922.611 7.024 1.93a11.42 11.42 0 0 1 4.199 5.26 20.89 20.89 0 0 1 1.361 7.982 21.31 21.31 0 0 1-1.394 8.037zM158.485 22.506c-.989.078-1.968.252-2.924.518a11.17 11.17 0 0 0-2.588 1.16 9.118 9.118 0 0 0-2.654 2.337 12.2 12.2 0 0 0-.891 1.394v-5.327h-7.394v33.186h8.425V38.769a10.391 10.391 0 0 1 .521-3.36c.3-.99.804-1.906 1.479-2.688a7.745 7.745 0 0 1 2.488-1.8 9.43 9.43 0 0 1 3.361-.84 8.868 8.868 0 0 1 3.175.318v-7.811a16.367 16.367 0 0 0-2.998-.082zM198.041 30.166a15.282 15.282 0 0 0-5.494-6.233 15.111 15.111 0 0 0-8.299-2.27 13.46 13.46 0 0 0-7.542 2.041V11.582h-8.388v44.192h7.342v-1.919c.318.248.647.488.987.71a13.462 13.462 0 0 0 8.019 2.133h-.067a14.157 14.157 0 0 0 8.085-2.303 15.6 15.6 0 0 0 5.357-6.285 20.38 20.38 0 0 0 1.955-8.939 19.916 19.916 0 0 0-1.955-9.005zm-7.764 14.1a7.907 7.907 0 0 1-2.554 3.645 6.895 6.895 0 0 1-4.436 1.345 7.233 7.233 0 0 1-4.47-1.212 6.98 6.98 0 0 1-2.421-3.527 19.252 19.252 0 0 1 0-10.57 7.234 7.234 0 0 1 2.355-3.53 6.741 6.741 0 0 1 4.233-1.26 7.39 7.39 0 0 1 4.587 1.364 8.01 8.01 0 0 1 2.655 3.66c.602 1.612.906 3.32.898 5.042a14.818 14.818 0 0 1-.828 5.043h-.019zM16.72 18.91a22.425 22.425 0 0 0-5.544 14.365 11.2 11.2 0 0 1-9.508 10.906A33.127 33.127 0 0 1 0 33.656 33.618 33.618 0 0 1 16.972 4.45a11.212 11.212 0 0 1-.251 14.47v-.012zM44.391 65.485A33.6 33.6 0 0 1 4.536 50.517a11.216 11.216 0 0 1 14.466.133 22.413 22.413 0 0 0 14.37 5.408 11.224 11.224 0 0 1 11.02 9.427zM67.215 33.656A33.61 33.61 0 0 1 50.713 62.59a11.231 11.231 0 0 1 0-14.483 22.313 22.313 0 0 0 5.294-14.451A11.23 11.23 0 0 1 65.3 22.599a33.051 33.051 0 0 1 1.915 11.057zM62.942 17.246a11.194 11.194 0 0 1-14.447-.37 22.403 22.403 0 0 0-14.351-5.645A11.187 11.187 0 0 1 23.29 1.62 33.604 33.604 0 0 1 62.942 17.23v.015zM46.722 35.287c1.122-6.945-3.598-13.485-10.543-14.608-6.945-1.122-13.485 3.598-14.607 10.543-1.123 6.945 3.597 13.485 10.542 14.607 6.945 1.123 13.485-3.597 14.608-10.542z" fill="#fff"/></svg>